<svg width="48" height="48" viewBox="0 0 48 48" fill="none" xmlns="http://www.w3.org/2000/svg">
<g clip-path="url(#clip0_34_13)">
<path d="M24.0006 48.0013C37.2558 48.0013 48.0013 37.2558 48.0013 24.0006C48.0013 10.7454 37.2558 0 24.0006 0C10.7454 0 0 10.7454 0 24.0006C0 37.2558 10.7454 48.0013 24.0006 48.0013Z" fill="#059E00"/>
<path d="M20.411 28.6959C20.8027 28.3244 21.0772 28.0763 21.3379 27.8143C25.129 24.0275 28.9183 20.2394 32.706 16.45C32.9264 16.2284 33.1405 15.9966 33.3773 15.7938C34.1834 15.0999 35.0625 15.0873 35.7376 15.7472C36.4127 16.4072 36.4215 17.4236 35.6683 18.1806C31.0259 22.8448 26.3717 27.4961 21.7057 32.1343C20.8971 32.9379 20.0432 32.9253 19.2132 32.1104C16.9151 29.8526 14.6325 27.5717 12.3654 25.2677C11.577 24.4641 11.577 23.5308 12.2533 22.8406C12.9297 22.1504 13.9637 22.2008 14.7572 22.9905C16.6237 24.8457 18.4613 26.7261 20.411 28.6959Z" fill="white"/>
</g>
<defs>
<clipPath id="clip0_34_13">
<rect width="48" height="48" fill="white"/>
</clipPath>
</defs>
</svg>
