<svg width="36" height="37" viewBox="0 0 36 37" fill="none" xmlns="http://www.w3.org/2000/svg">
<path d="M24.8236 18.1818L35.0581 7.94733C36.314 6.69142 36.314 4.65517 35.0581 3.39824L32.7835 1.12369C31.5276 -0.132215 29.4914 -0.132215 28.2344 1.12369L18 11.3581L7.76557 1.12369C6.50966 -0.132215 4.47341 -0.132215 3.21648 1.12369L0.941932 3.39824C-0.313977 4.65415 -0.313977 6.6904 0.941932 7.94733L11.1764 18.1818L0.941932 28.4162C-0.313977 29.6721 -0.313977 31.7084 0.941932 32.9653L3.21648 35.2398C4.47239 36.4957 6.50966 36.4957 7.76557 35.2398L18 25.0054L28.2344 35.2398C29.4903 36.4957 31.5276 36.4957 32.7835 35.2398L35.0581 32.9653C36.314 31.7094 36.314 29.6731 35.0581 28.4162L24.8236 18.1818Z" fill="black"/>
</svg>
