<svg width="400" height="385" viewBox="0 0 400 385" fill="none" xmlns="http://www.w3.org/2000/svg">
<rect width="400" height="385" fill="#E5E5E5"/>
<rect width="1920" height="1080" transform="translate(-760 -200)" fill="white"/>
<path d="M192.701 364.93C191.564 365.214 190.427 365.309 189.289 365.309C189.1 365.309 188.91 365.309 188.72 365.309C180.758 365.024 173.365 358.768 168.815 350.427C148.626 313.271 143.128 290.332 135.829 265.214C134.028 258.958 134.502 252.607 137.156 248.058C139.242 244.55 142.559 241.991 147.109 241.517C147.678 241.422 148.152 241.422 148.72 241.422C156.777 241.422 165.213 247.868 168.531 256.209L203.128 340.949C207.488 351.659 202.749 362.655 192.701 364.93Z" fill="#FFB96C"/>
<path d="M188.72 365.309C180.758 365.024 173.365 358.768 168.815 350.427C148.626 313.271 143.128 290.332 135.829 265.214C134.028 258.958 134.502 252.607 137.156 248.057C146.161 269.858 175.735 341.422 184.834 358.105C186.256 360.759 187.583 363.128 188.72 365.309Z" fill="#FCAF63"/>
<path d="M236.114 352.132C235.26 354.312 234.123 356.018 232.986 356.871C226.161 362.274 219.431 363.506 208.151 365.971C196.872 368.435 185.213 367.867 179.81 362.748C178.009 361.042 176.682 359.146 175.924 357.156C173.554 351.469 175.64 345.497 182.369 342.938C186.35 341.421 222.559 332.89 228.531 334.028C238.862 336.018 238.673 345.781 236.114 352.132Z" fill="#FFB96C"/>
<path d="M236.114 352.132C235.261 354.312 234.123 356.018 232.986 356.871C226.161 362.274 219.431 363.506 208.152 365.971C196.872 368.435 185.213 367.867 179.81 362.748C178.009 361.042 176.682 359.146 175.924 357.156C178.957 358.009 185.024 359.146 195.355 358.009C204.076 357.061 221.99 354.312 236.114 352.132Z" fill="#FCAF63"/>
<path d="M226.635 334.692C215.356 338.483 216.588 345.972 218.294 353.27C220 360.569 234.029 379.336 238.294 380.284C242.559 381.232 242.844 379.526 241.706 376.019C240.569 372.512 232.512 360.284 232.512 360.284C232.512 360.284 241.422 372.417 245.119 376.019C248.815 379.621 251.943 379.336 251.849 375.355C251.659 371.374 242.844 358.009 242.844 358.009C242.844 358.009 250.616 368.246 253.839 371.754C257.062 375.261 261.327 374.692 259.811 369.953C258.389 365.213 251.943 354.881 251.943 354.881C251.943 354.881 258.199 365.308 262.37 366.351C266.54 367.393 263.981 361.137 259.526 353.175C255.166 345.024 240.664 329.953 226.635 334.692Z" fill="#FEA691"/>
<path d="M217.156 345.118C217.156 345.118 214.787 354.407 216.303 362.559C217.82 370.71 220.379 372.322 222.085 372.701C223.792 373.08 224.36 370.9 223.507 367.393C222.654 363.886 224.929 356.966 224.929 356.966C224.929 356.966 222.465 343.032 217.156 345.118Z" fill="#FEA691"/>
<path d="M172.512 374.881H76.8718C76.8718 374.881 63.6965 282.748 72.0377 260.094C74.4074 253.649 77.5353 248.436 81.1372 244.075C90.142 233.08 101.706 228.056 109.573 226.066C119.905 223.412 128.91 223.317 136.682 225.213C157.346 230.142 168.815 249.004 172.512 269.573C177.63 297.914 172.512 374.881 172.512 374.881Z" fill="#FEC272"/>
<path d="M110.427 244.549C97.9147 247.772 86.4455 247.393 81.0427 244.075C90.0474 233.08 101.611 228.056 109.479 226.066C119.81 223.412 128.815 223.317 136.588 225.213C138.294 231.658 126.54 240.379 110.427 244.549Z" fill="#F9B35F"/>
<path d="M102.275 266.162C102.275 267.679 102.18 269.195 101.896 270.617C98.0094 295.83 75.6397 356.494 75.6397 356.494C74.0283 361.328 70.616 364.93 66.4454 366.92C62.2748 368.816 57.4407 369.195 52.7961 367.394C45.5923 364.551 42.18 357.726 42.18 350.238C42.18 348.626 42.3696 347.015 42.6539 345.404C49.1942 310.048 60.853 280.759 70.4264 260.096C74.597 250.996 84.834 245.309 93.8388 249.859C96.5876 251.186 98.4833 253.366 99.9051 255.83C101.611 258.863 102.275 262.465 102.275 266.162Z" fill="#FFCD92"/>
<path d="M102.275 266.162C102.275 267.679 102.18 269.195 101.896 270.617C98.0096 295.831 75.6399 356.494 75.6399 356.494C74.0285 361.328 70.6162 364.93 66.4456 366.921L99.8105 255.736C101.611 258.864 102.275 262.466 102.275 266.162Z" fill="#FCB765"/>
<path d="M132.133 366.73C130.048 371.848 123.223 372.038 123.223 372.038C123.223 372.038 104.076 373.175 87.4882 373.175C70.9005 373.175 54.5972 373.175 47.9621 365.687C46.6351 364.17 45.5925 362.464 45.0238 360.663C42.5593 353.744 45.6873 345.497 55.5451 341.327C62.6541 338.294 70.8058 339.336 79.7157 340.189C88.6257 341.042 105.782 345.023 115.735 347.677C125.782 350.237 131.754 352.796 132.607 362.275C132.891 364.076 132.607 365.497 132.133 366.73Z" fill="#FFCD92"/>
<path d="M132.133 366.731C130.047 371.849 123.223 372.039 123.223 372.039C123.223 372.039 104.076 373.176 87.4881 373.176C70.9004 373.176 54.5971 373.176 47.962 365.688C46.635 364.172 45.5923 362.465 45.0236 360.664C52.417 362.939 62.3696 365.593 70.3317 366.257C92.7961 368.153 122.559 367.205 132.133 366.731Z" fill="#FCB765"/>
<path d="M152.133 351.469C152.133 352.985 151.943 354.597 151.564 356.303C149.574 364.455 139.052 370.711 123.033 371.564C115.924 371.943 111.09 371.943 107.867 371.185C103.697 370.142 102.085 367.677 101.706 362.559C101.232 356.019 106.161 350.047 109.858 347.488C120.948 340 131.28 339.431 140.284 340.284C148.341 341.137 152.038 345.592 152.133 351.469Z" fill="#FEA691"/>
<path d="M152.133 351.468C152.133 352.985 151.943 354.596 151.564 356.302C149.573 364.454 139.052 370.71 123.033 371.563C115.924 371.942 111.09 371.942 107.867 371.184C107.488 370.236 107.204 369.099 107.109 367.677C106.635 362.084 111.28 356.871 114.881 354.691C125.403 348.246 135.261 347.677 143.791 348.53C147.583 348.814 150.332 349.857 152.133 351.468Z" fill="#FC8172"/>
<path d="M164.55 367.962C164.55 369.005 164.36 369.953 164.076 370.995H111.943C111.659 370.048 111.469 369.005 111.469 367.962C111.469 358.863 123.317 351.469 138.009 351.469C152.701 351.469 164.55 358.863 164.55 367.962Z" fill="#C7DCF9"/>
<path opacity="0.55" d="M163.412 369.385C163.412 369.954 163.317 370.428 163.033 370.996H115.355C115.071 370.428 114.976 369.954 114.976 369.385C114.976 364.551 125.782 360.57 139.147 360.57C152.607 360.57 163.412 364.551 163.412 369.385Z" fill="#C7DCF9"/>
<path d="M153.08 337.536C156.493 337.915 158.862 340.096 160.189 344.645C161.516 349.195 161.801 355.925 160.379 358.295C158.957 360.664 156.303 361.707 153.365 359.337C150.426 356.968 148.815 350.333 147.867 347.015C146.73 342.655 145.403 336.778 153.08 337.536Z" fill="#FEA691"/>
<path d="M140.38 335.355C144.077 335.734 145.594 338.862 147.015 343.602C148.437 348.341 148.722 355.545 147.205 358.104C145.688 360.568 142.845 361.706 139.717 359.241C136.589 356.777 134.788 349.668 133.84 346.161C132.608 341.516 132.039 334.597 140.38 335.355Z" fill="#FEA691"/>
<path d="M144.076 360.474C142.749 360.758 141.232 360.474 139.716 359.147C136.588 356.682 134.882 349.573 133.839 346.066C132.796 342.275 132.227 336.872 136.682 335.545C135.829 338.104 136.303 341.611 136.967 344.265C137.915 348.341 139.716 356.588 142.844 359.431C143.318 359.905 143.697 360.284 144.076 360.474Z" fill="#FF8D76"/>
<path d="M126.54 337.536C130.237 337.915 132.701 340.285 134.123 345.024C135.545 349.763 135.829 356.967 134.313 359.526C132.796 361.991 129.953 363.128 126.825 360.664C123.697 358.199 121.896 351.09 120.948 347.583C119.716 342.939 118.294 336.683 126.54 337.536Z" fill="#FEA691"/>
<path d="M130.237 361.989C129.194 361.989 128.057 361.516 126.919 360.568C123.792 358.103 122.085 350.994 121.043 347.487C120.095 343.885 118.957 339.335 122.465 337.819C122.18 340.189 122.844 343.222 123.507 345.686C124.645 349.952 126.635 358.672 130.142 361.8C130.142 361.989 130.142 361.989 130.237 361.989Z" fill="#FF8D76"/>
<path d="M114.123 340.189C117.346 339.241 119.811 342.748 121.043 347.109C122.275 351.469 122.654 358.104 121.232 360.379C119.905 362.654 117.251 363.696 114.408 361.421C111.564 359.147 110.806 354.786 109.953 351.564C108.815 347.393 107.868 342.085 114.123 340.189Z" fill="#FEA691"/>
<path d="M117.63 362.749C116.588 362.749 115.545 362.37 114.407 361.422C111.564 359.147 110.806 354.787 109.953 351.564C108.91 347.962 108.152 343.507 111.943 341.138C111.659 343.697 112.133 346.446 112.607 348.91C113.46 353.27 114.123 359.242 117.346 362.465C117.441 362.56 117.535 362.654 117.63 362.749Z" fill="#FF8D76"/>
<path d="M157.062 360.568C155.924 360.663 154.692 360.283 153.46 359.241C150.521 356.871 148.91 350.236 147.962 346.919C147.014 343.411 145.877 338.862 149.668 337.724C149.668 339.81 150.142 342.179 150.616 344.265C151.564 348.53 153.365 357.061 156.398 360.094C156.682 360.283 156.872 360.473 157.062 360.568Z" fill="#FF8D76"/>
<path d="M111.564 127.488C111.564 127.488 120.379 123.886 126.351 135.829C132.322 147.867 125.877 155.545 125.877 155.545C125.877 155.545 120 138.199 111.564 127.488Z" fill="#FF8D76"/>
<path d="M117.63 237.345C109.289 241.232 103.507 235.829 103.507 235.829L98.2939 224.549L88.91 204.265C103.033 201.232 115.355 198.862 115.355 198.862L117.536 207.867L121.611 224.644C121.422 224.739 125.972 233.554 117.63 237.345Z" fill="#FEA691"/>
<path d="M117.441 207.961C116.208 209.762 114.881 211.658 113.27 213.459C109.194 218.293 103.317 221.99 98.1989 224.549L88.815 204.265C102.938 201.232 115.261 198.862 115.261 198.862L117.441 207.961Z" fill="#FF8D76"/>
<path d="M109.706 206.437C130.82 193.603 135.218 162.276 119.529 136.465C103.84 110.654 74.0058 100.135 52.8921 112.968C31.7784 125.802 27.3805 157.13 43.0693 182.94C58.758 208.751 88.5923 219.271 109.706 206.437Z" fill="#FEA691"/>
<path d="M119.716 197.44C116.967 200.948 113.555 203.981 109.668 206.445C88.5309 219.241 58.7678 208.72 43.0332 182.938C27.4882 157.44 31.6588 126.445 52.2275 113.365C40.2844 128.72 39.7157 153.365 52.5119 174.313C68.1517 200.095 98.0095 210.616 119.147 197.82C119.337 197.725 119.526 197.63 119.716 197.44Z" fill="#FF8D76"/>
<path d="M62.6541 198.105C62.6541 198.105 46.5403 185.403 42.4645 162.655C38.3887 139.906 42.9385 130.711 61.6114 119.716C80.2844 108.816 94.218 112.702 94.218 112.702C94.218 112.702 80.9479 102.749 59.2418 106.446C37.5356 110.048 15.4503 130.712 20.0001 161.802C24.7394 194.977 44.455 204.74 62.6541 198.105Z" fill="#283575"/>
<path d="M82.1803 138.673C79.621 140.474 83.2229 150.047 90.9954 157.156C98.7679 164.265 106.256 160.568 106.446 153.554C106.635 146.35 90.9954 132.417 82.1803 138.673Z" fill="#F76F59"/>
<path d="M43.981 180.947C43.981 180.947 28.8152 195.829 42.4644 208.815C55.545 221.232 72.0379 204.549 72.0379 204.549C72.0379 204.549 48.9099 192.132 43.981 180.947Z" fill="#FF8D76"/>
<path d="M45.782 189.574C45.782 189.574 37.2512 197.916 44.9289 205.309C52.3223 212.323 61.6114 202.939 61.6114 202.939C61.6114 202.939 48.5308 195.925 45.782 189.574Z" fill="#F76F59"/>
<path d="M92.3224 111.469C92.3224 111.469 93.9337 82.8436 77.6304 71.1849C59.2418 58.1043 48.91 76.9668 54.9764 92.4171C57.6304 99.3365 60.474 103.507 62.7489 105.972C64.8342 108.246 67.6778 109.573 70.711 109.763L92.3224 111.469Z" fill="#283575"/>
<path d="M29.9525 87.2992C15.4501 98.8632 27.962 115.451 33.9336 119.906C36.4928 121.802 39.2416 123.318 41.6113 124.456C44.834 125.972 48.6255 125.783 51.6587 123.887L72.1326 110.901C72.1326 110.996 49.1942 72.0385 29.9525 87.2992Z" fill="#283575"/>
<path d="M64.3603 68.0558C59.8105 68.6246 64.8342 77.3449 71.4693 78.4824C78.1044 79.6198 76.0191 66.634 64.3603 68.0558Z" fill="#3C4E8E"/>
<path d="M35.6399 87.489C32.9859 90.5221 39.9053 94.4084 45.4977 92.5127C51.1849 90.7117 41.5167 80.8539 35.6399 87.489Z" fill="#3C4E8E"/>
<path d="M120 174.882C119.526 175.83 118.863 176.683 117.915 177.441C114.408 180.19 111.754 184.171 109.858 188.342C108.152 192.039 103.792 196.399 99.7158 193.271C99.2419 192.892 98.7679 192.512 98.3888 191.944C94.1234 186.541 95.7348 172.607 102.37 166.446C107.488 161.707 113.839 162.939 117.062 165.593C120.19 167.963 121.517 171.754 120 174.882Z" fill="#F76F59"/>
<path d="M120 174.88C119.526 175.828 118.863 176.681 117.915 177.44C114.408 180.189 111.754 184.17 109.858 188.34C108.152 192.037 103.792 196.397 99.7157 193.269C99.7157 187.298 101.896 180.283 106.066 176.492C110.901 172.132 116.588 172.7 120 174.88Z" fill="#FF6EA9"/>
<path d="M61.327 158.484C58.2938 158.484 55.9241 157.536 55.7346 157.441C54.5023 156.967 53.9336 155.546 54.4075 154.313C54.8815 153.081 56.3033 152.512 57.5355 152.986C57.6303 152.986 62.8436 155.072 65.6872 151.944C69.3839 148.057 65.4976 143.034 65.4028 142.844C64.5497 141.802 64.7393 140.285 65.782 139.432C66.8246 138.579 68.3412 138.768 69.1943 139.811C71.4692 142.749 74.4076 149.669 69.1943 155.167C66.8246 157.726 63.8862 158.484 61.327 158.484Z" fill="#1C3177"/>
<path d="M96.5877 134.693C91.7536 134.693 87.6778 131.091 87.3934 130.901C86.3508 130.048 86.3508 128.437 87.2039 127.489C88.0569 126.541 89.5735 126.447 90.6162 127.3C90.6162 127.3 94.9764 130.996 98.1991 129.574C99.6209 128.911 98.5783 125.973 98.4835 125.878C98.0095 124.646 98.5783 123.224 99.9053 122.75C101.138 122.276 102.559 122.845 103.033 124.077C104.455 127.584 104.076 132.228 100.19 133.935C98.9574 134.503 97.7252 134.693 96.5877 134.693Z" fill="#1C3177"/>
<path d="M48.6255 152.797C48.5308 152.797 48.436 152.797 48.3412 152.797C47.0142 152.607 46.0663 151.47 46.1611 150.143C46.1611 149.858 46.8246 144.171 50.8056 138.389C54.6919 132.607 58.6729 130.617 58.8625 130.522C60.0947 129.953 61.5165 130.427 62.0853 131.659C62.654 132.892 62.18 134.313 60.9478 134.882C60.9478 134.882 57.9146 136.494 54.7867 141.043C51.5639 145.783 50.9952 150.522 50.9952 150.617C50.9004 151.849 49.8578 152.797 48.6255 152.797Z" fill="#1C3177"/>
<path d="M83.3176 124.739C82.6541 124.739 81.8958 124.455 81.4219 123.886C80.5688 122.843 80.7583 121.327 81.801 120.474C82.0854 120.284 84.2655 118.483 88.1517 117.346C92.038 116.208 95.2607 116.303 95.3555 116.303C96.6825 116.303 97.7252 117.44 97.7252 118.767C97.7252 120.094 96.493 121.137 95.2607 121.137C95.2607 121.137 92.7015 121.042 89.5735 121.99C86.5404 122.938 84.8342 124.265 84.8342 124.265C84.3603 124.549 83.8863 124.739 83.3176 124.739Z" fill="#1C3177"/>
<path d="M393.175 384.645H6.82465C3.03318 384.645 0 381.611 0 377.82C0 374.028 3.03318 370.995 6.82465 370.995H393.175C396.967 370.995 400 374.028 400 377.82C400 381.517 396.967 384.645 393.175 384.645Z" fill="#FD7F2D"/>
<path d="M392.512 384.645H62.5591C58.7677 384.645 55.7345 381.611 55.7345 377.82C55.7345 374.028 58.7677 370.995 62.5591 370.995H392.512C396.303 370.995 399.336 374.028 399.336 377.82C399.431 381.517 396.303 384.645 392.512 384.645Z" fill="#FD7F2D"/>
<path d="M347.393 326.255H171.09C167.962 326.255 165.497 323.412 166.066 320.284L184.834 207.772C185.213 205.308 187.393 203.507 189.858 203.507H366.161C369.289 203.507 371.753 206.35 371.185 209.478L352.512 321.99C352.038 324.455 349.952 326.255 347.393 326.255Z" fill="#E1ECFF"/>
<path d="M351.185 326.255H177.157C174.029 326.255 171.564 323.412 172.133 320.284L190.901 207.772C191.28 205.308 193.46 203.507 195.924 203.507H369.953C373.081 203.507 375.545 206.35 374.976 209.478L356.209 321.99C355.83 324.455 353.649 326.255 351.185 326.255Z" fill="#FFF4E5"/>
<path d="M332.796 314.219H199.905C197.441 314.219 195.64 312.039 196.019 309.669L210.332 223.792C210.616 221.896 212.322 220.475 214.218 220.475H347.014C349.479 220.475 351.28 222.655 350.9 225.024L336.588 310.901C336.303 312.797 334.692 314.219 332.796 314.219Z" fill="#FFB986"/>
<path d="M276.019 363.981H251.848C249.573 363.981 247.867 362.086 248.057 359.811L254.407 296.778C254.597 294.882 256.208 293.365 258.199 293.365H282.369C284.644 293.365 286.351 295.261 286.161 297.536L279.81 360.569C279.621 362.56 278.009 363.981 276.019 363.981Z" fill="#E1ECFF"/>
<path d="M277.725 363.981H255.545C254.123 363.981 252.986 362.749 253.081 361.327L259.716 295.545C259.81 294.313 260.853 293.365 262.18 293.365H284.36C285.782 293.365 286.919 294.597 286.825 296.019L280.19 361.801C280 363.034 278.957 363.981 277.725 363.981Z" fill="#FFF4E5"/>
<path d="M316.209 370.9H215.545C213.46 370.9 211.753 369.194 211.753 367.109V358.768C211.753 356.682 213.46 354.976 215.545 354.976H316.209C318.294 354.976 320 356.682 320 358.768V367.109C320 369.194 318.294 370.9 316.209 370.9Z" fill="#E1ECFF"/>
<path d="M318.294 370.9H223.602C221.422 370.9 219.621 369.099 219.621 366.919V358.957C219.621 356.777 221.422 354.976 223.602 354.976H318.294C320.474 354.976 322.275 356.777 322.275 358.957V366.919C322.18 369.099 320.474 370.9 318.294 370.9Z" fill="#FFF4E5"/>
<path d="M389.005 187.867C388.057 188.53 386.825 189.004 385.498 189.004H294.692C290.142 189.004 287.299 184.265 289.384 180.189L322.37 116.777L334.503 93.4593C336.777 89.1939 342.844 89.1939 345.119 93.4593L390.806 180.189C392.322 183.033 391.28 186.256 389.005 187.867Z" fill="#FF9957"/>
<path d="M389.005 187.866C388.057 188.53 386.825 189.004 385.498 189.004H294.692C290.142 189.004 287.299 184.265 289.384 180.189L322.37 116.776L312.322 170.141C311.469 174.691 314.597 178.956 319.242 179.525L389.005 187.866Z" fill="#FFB281"/>
<path d="M335.64 155.072L330.901 121.138C330.711 120.001 331.659 118.958 332.796 118.958H346.256C347.394 118.958 348.247 120.001 348.152 121.138L343.413 155.072C343.318 156.02 342.465 156.683 341.517 156.683H337.441C336.493 156.778 335.735 156.02 335.64 155.072Z" fill="white"/>
<path d="M339.526 176.02C343.243 176.02 346.256 173.007 346.256 169.29C346.256 165.573 343.243 162.56 339.526 162.56C335.809 162.56 332.796 165.573 332.796 169.29C332.796 173.007 335.809 176.02 339.526 176.02Z" fill="white"/>
<path d="M93.4596 38.5784L95.1658 42.0855C95.3554 42.5594 95.8293 42.8438 96.3032 42.8438L100.095 43.4125C101.327 43.6021 101.801 45.0239 100.853 45.8769L98.1042 48.531C97.7251 48.9101 97.6303 49.3841 97.725 49.858L98.3886 53.6495C98.5781 54.7869 97.3459 55.7348 96.3032 55.166L92.8909 53.3651C92.5118 53.1755 91.9431 53.1755 91.5639 53.3651L88.1516 55.166C87.1089 55.7348 85.8767 54.7869 86.0663 53.6495L86.7298 49.858C86.8246 49.3841 86.635 48.9101 86.3506 48.531L83.6018 45.8769C82.7488 45.0239 83.2227 43.6021 84.3601 43.4125L88.1516 42.8438C88.6255 42.749 89.0047 42.4646 89.289 42.0855L90.9952 38.5784C91.3743 37.5357 92.8909 37.5357 93.4596 38.5784Z" fill="#FEC272"/>
<path d="M277.915 66.0664C277.915 79.1469 274.123 91.2796 267.583 101.611C265.213 107.109 253.27 130.332 212.701 148.91C170.142 168.436 132.417 154.502 132.417 154.502C132.417 154.502 155.64 139.242 151.279 113.744C147.867 93.6493 145.497 79.2417 145.687 67.109C145.687 66.7299 145.687 66.4455 145.687 66.0664C145.687 29.5735 175.26 0 211.753 0C248.246 0 277.915 29.5735 277.915 66.0664Z" fill="#FFF4E6"/>
<path d="M139.336 109.953C135.829 100.949 132.322 101.328 129.953 103.034C127.772 104.645 127.299 110.238 129.953 115.546C132.607 120.854 135.261 120.475 137.915 119.053C140.569 117.631 140.948 114.124 139.336 109.953Z" fill="#C7DCF9"/>
<path d="M256.398 129.858C241.801 137.63 243.128 143.602 246.54 147.204C249.763 150.616 259.336 150.237 267.772 144.739C276.208 139.242 275.166 134.787 272.227 130.521C269.289 126.256 263.128 126.161 256.398 129.858Z" fill="#C7DCF9"/>
<path d="M259.241 86.5393C259.241 90.1412 257.535 93.743 254.312 95.9231C247.298 100.852 236.113 108.151 223.791 114.596C215.924 118.767 209.099 121.99 203.602 124.359C199.052 126.35 194.028 125.971 189.952 123.696C187.203 122.179 184.929 119.809 183.507 116.776C182.559 114.691 181.99 112.416 181.99 110.141C181.99 108.245 182.369 106.35 183.033 104.454L183.412 103.411L199.715 62.0843L177.914 73.8378C171.848 77.0606 164.36 74.9753 160.853 69.0037C160.758 68.8141 160.663 68.6246 160.568 68.435C159.62 66.5393 159.147 64.5487 159.147 62.5582C159.147 58.3876 161.232 54.217 165.023 51.8473C171.943 47.3923 181.99 41.326 193.933 34.9753C216.872 22.7478 228.246 24.2644 231.469 30.4255C234.692 36.6814 216.208 89.0037 216.208 89.0037C216.208 89.0037 240.948 76.5867 243.602 75.6388C249.289 73.4587 255.639 76.1127 258.199 81.6104C258.767 82.8426 259.052 84.1696 259.147 85.4966C259.241 85.9705 259.241 86.2549 259.241 86.5393Z" fill="#FEA691"/>
<path d="M206.635 55.2601C201.137 68.8146 188.152 99.9994 183.602 103.507L199.905 62.1795L178.104 73.9331C172.038 77.2506 164.36 75.0705 160.948 69.0041C161.137 68.8146 160.948 69.0042 161.137 68.8146C163.317 69.8572 167.204 70.8051 172.986 67.9615C183.791 62.843 196.114 56.1132 203.223 52.2269C205.213 51.1842 207.488 53.1748 206.635 55.2601Z" fill="#F76F59"/>
<path d="M259.242 86.5398C259.242 90.1417 257.535 93.7436 254.313 95.9237C247.298 100.853 236.114 108.151 223.791 114.597C215.924 118.767 209.099 121.99 203.602 124.36C199.052 126.35 194.028 125.971 189.953 123.696C190.806 123.507 191.659 123.317 192.417 123.033C196.682 121.611 215.924 111.469 234.787 101.327C247.109 94.6914 255.45 89.3834 259.147 85.7815C259.242 85.9711 259.242 86.2554 259.242 86.5398Z" fill="#F76F59"/>
<path opacity="0.49" d="M211.469 29.479C202.938 32.3226 198.578 37.6306 208.815 37.0619C219.052 36.4932 224.455 31.2799 222.654 29.5738C220.853 27.9624 215.355 28.152 211.469 29.479Z" fill="white"/>
<path opacity="0.49" d="M244.171 77.8204C238.768 79.6213 235.924 83.0336 242.464 82.6545C249.005 82.2753 252.417 78.9578 251.28 77.9152C250.047 76.8725 246.635 76.9673 244.171 77.8204Z" fill="white"/>
</svg>
