<svg width="32" height="43" viewBox="0 0 32 43" fill="none" xmlns="http://www.w3.org/2000/svg">
<path d="M18.6667 11.3333V0H2C0.891667 0 0 0.891667 0 2V40.6667C0 41.775 0.891667 42.6667 2 42.6667H30C31.1083 42.6667 32 41.775 32 40.6667V13.3333H20.6667C19.5667 13.3333 18.6667 12.4333 18.6667 11.3333ZM25.0375 28.9467L17.0025 36.9217C16.4483 37.4725 15.5533 37.4725 14.9992 36.9217L6.96417 28.9467C6.11833 28.1075 6.71167 26.6667 7.90167 26.6667H13.3333V20C13.3333 19.2633 13.93 18.6667 14.6667 18.6667H17.3333C18.07 18.6667 18.6667 19.2633 18.6667 20V26.6667H24.0983C25.2883 26.6667 25.8817 28.1075 25.0375 28.9467ZM31.4167 8.75L23.2583 0.583333C22.8833 0.208333 22.375 0 21.8417 0H21.3333V10.6667H32V10.1583C32 9.63333 31.7917 9.125 31.4167 8.75Z" fill="white"/>
</svg>
